<svg width="40" height="41" viewBox="0 0 40 41" fill="none" xmlns="http://www.w3.org/2000/svg">
<path d="M19.8917 0C8.90417 0 0 9.14167 0 20.4167C0 31.6917 8.90833 40.8333 19.8917 40.8333C30.8792 40.8333 40 31.6917 40 20.4167C40 9.14167 30.8792 0 19.8917 0ZM25.8333 39.1667C24.875 39.3583 24.5667 38.3417 24.5667 37.825C24.5667 37.1917 24.5875 35.1083 24.5875 32.525C24.5875 30.7208 23.9833 29.5417 23.3083 28.9417C27.5083 28.4667 31.9125 26.8292 31.9125 19.4083C31.9125 17.3 31.1833 15.5708 29.975 14.2208C30.1667 13.7333 30.8167 11.7708 29.7875 9.10833C29.7875 9.10833 28.2083 8.5875 24.6083 11.0917C23.1042 10.6625 21.4917 10.4458 19.8917 10.4375C18.2875 10.4458 16.675 10.6583 15.175 11.0917C11.575 8.59167 9.99167 9.10833 9.99167 9.10833C8.96667 11.7708 9.6125 13.7333 9.80833 14.2208C8.60417 15.5708 7.87083 17.2958 7.87083 19.4083C7.87083 26.8125 12.2708 28.4708 16.4542 28.9583C15.9167 29.4417 15.4292 30.2917 15.2583 31.5417C14.1833 32.0333 11.4542 32.8875 9.775 29.9333C9.775 29.9333 8.77917 28.0792 6.8875 27.9417C6.8875 27.9417 5.04583 27.9167 6.75833 29.1167C6.75833 29.1167 7.99583 29.7083 8.85 31.9417C8.85 31.9417 9.95833 35.7 15.2 34.5333C15.2083 36.1458 15.225 37.3625 15.225 37.8208C15.225 38.3333 14.6958 39.3458 13.75 39.1667C6.25833 36.6125 0.833333 28.9542 0.833333 20.4167C0.829167 9.75 9.48333 0.833333 19.8917 0.833333C30.3 0.833333 39.1667 9.74167 39.1667 20.4167C39.1667 28.95 33.3125 36.6083 25.8333 39.1667Z" fill="#9E9D96"/>
</svg>

